<mxfile host="app.diagrams.net" agent="Mozilla/5.0 (Windows NT 10.0; Win64; x64) AppleWebKit/537.36 (KHTML, like Gecko) Chrome/138.0.0.0 Safari/537.36 Edg/138.0.0.0" version="28.0.4">
  <diagram name="ArticlesSelection" id="jamtwrOvTJwfkREujlh_">
    <mxGraphModel dx="1212" dy="543" grid="1" gridSize="10" guides="1" tooltips="1" connect="1" arrows="1" fold="1" page="1" pageScale="1" pageWidth="827" pageHeight="1169" math="0" shadow="0">
      <root>
        <mxCell id="0" />
        <mxCell id="1" parent="0" />
        <mxCell id="6lrZ7uDYgWv-Zom-KdMy-2" value="Intermediate Slice Generation&lt;div&gt;(14)&lt;/div&gt;" style="rounded=1;whiteSpace=wrap;html=1;fontStyle=1;fillColor=#f5f5f5;gradientColor=#b3b3b3;strokeColor=#666666;" parent="1" vertex="1">
          <mxGeometry x="306.55" y="54" width="119" height="50" as="geometry" />
        </mxCell>
        <mxCell id="6lrZ7uDYgWv-Zom-KdMy-4" value="Inter-slice&amp;nbsp;&lt;div&gt;Super-resolution (8)&lt;/div&gt;" style="rounded=1;whiteSpace=wrap;html=1;fillColor=#dae8fc;strokeColor=#6c8ebf;glass=0;shadow=0;gradientColor=#7ea6e0;fontStyle=1" parent="1" vertex="1">
          <mxGeometry x="220" y="140" width="101" height="50" as="geometry" />
        </mxCell>
        <mxCell id="6lrZ7uDYgWv-Zom-KdMy-5" value="" style="strokeWidth=2;html=1;shape=mxgraph.flowchart.annotation_2;align=left;labelPosition=right;pointerEvents=1;rotation=90;" parent="1" vertex="1">
          <mxGeometry x="348.51" y="23.43" width="35.07" height="197.57" as="geometry" />
        </mxCell>
        <mxCell id="6lrZ7uDYgWv-Zom-KdMy-6" value="Intra- and Inter-slice Super-resolution (4)" style="rounded=1;whiteSpace=wrap;html=1;fillColor=#f8cecc;strokeColor=#b85450;gradientColor=#ea6b66;fontStyle=1" parent="1" vertex="1">
          <mxGeometry x="414" y="140" width="103.5" height="50" as="geometry" />
        </mxCell>
        <mxCell id="6lrZ7uDYgWv-Zom-KdMy-12" value="3D Generative Adversarial Networks&amp;nbsp;&lt;span style=&quot;background-color: initial;&quot;&gt;(4)&lt;/span&gt;" style="rounded=1;whiteSpace=wrap;html=1;fillColor=#ffcd28;strokeColor=#d79b00;glass=0;shadow=0;gradientColor=#ffa500;fontStyle=1" parent="1" vertex="1">
          <mxGeometry x="296" y="225.78" width="100" height="50" as="geometry" />
        </mxCell>
        <mxCell id="DlnnmUc1WhPFus-zKRdR-5" value="Video Frame Interpolation (2)" style="rounded=1;whiteSpace=wrap;html=1;fillColor=#d5e8d4;strokeColor=#82b366;glass=0;shadow=0;gradientColor=#97d077;fontStyle=1" parent="1" vertex="1">
          <mxGeometry x="514" y="54" width="100" height="50" as="geometry" />
        </mxCell>
        <mxCell id="gUjc5FYNNMk8TkyY-tkO-1" value="" style="endArrow=none;dashed=1;html=1;rounded=0;entryX=0;entryY=0.5;entryDx=0;entryDy=0;exitX=1;exitY=0.5;exitDx=0;exitDy=0;" parent="1" source="6lrZ7uDYgWv-Zom-KdMy-2" target="DlnnmUc1WhPFus-zKRdR-5" edge="1">
          <mxGeometry width="50" height="50" relative="1" as="geometry">
            <mxPoint x="470" y="190" as="sourcePoint" />
            <mxPoint x="520" y="140" as="targetPoint" />
          </mxGeometry>
        </mxCell>
        <mxCell id="C0jx6buas9HVR1wIz04_-1" value="" style="strokeWidth=2;html=1;shape=mxgraph.flowchart.annotation_2;align=left;labelPosition=right;pointerEvents=1;rotation=90;" vertex="1" parent="1">
          <mxGeometry x="252.97" y="132.78" width="35.07" height="150" as="geometry" />
        </mxCell>
        <mxCell id="C0jx6buas9HVR1wIz04_-4" value="2D Networks&amp;nbsp;&lt;span style=&quot;background-color: initial;&quot;&gt;(4)&lt;/span&gt;" style="rounded=1;whiteSpace=wrap;html=1;fillColor=#e6d0de;strokeColor=#996185;glass=0;shadow=0;gradientColor=#d5739d;fontStyle=1" vertex="1" parent="1">
          <mxGeometry x="142.97" y="225.78" width="106" height="50" as="geometry" />
        </mxCell>
      </root>
    </mxGraphModel>
  </diagram>
</mxfile>
